<?xml version="1.0" encoding="iso-8859-1"?>
<!-- Generator: Adobe Illustrator 19.0.0, SVG Export Plug-In . SVG Version: 6.00 Build 0)  -->
<svg version="1.1" id="Layer_1" xmlns="http://www.w3.org/2000/svg" xmlns:xlink="http://www.w3.org/1999/xlink" x="0px" y="0px"
	 viewBox="0 0 512 512" style="enable-background:new 0 0 512 512;" xml:space="preserve">
<path style="fill:#DDB201;" d="M263.877,331.233c-18.905-10.915-36.034-11.928-48.403-4.741l-25.994,15.106
	c0.04-0.023,0.08-0.044,0.119-0.066c-12.281,7.068-19.902,22.183-19.962,43.698c-0.122,43.169,30.234,95.749,67.802,117.44
	c19.142,11.052,36.46,11.946,48.862,4.461c-0.154,0.093-0.304,0.189-0.46,0.28l25.994-15.106
	c12.21-7.096,19.783-22.185,19.843-43.631C331.803,405.503,301.446,352.924,263.877,331.233z"/>
<path style="fill:#FECE00;" d="M189.481,341.599l25.994-15.106c12.368-7.188,29.498-6.175,48.403,4.741l-25.994,15.106
	C218.978,335.423,201.85,334.411,189.481,341.599z"/>
<path style="fill:#DDB201;" d="M311.837,492.304l-25.994,15.106c12.211-7.096,19.783-22.185,19.843-43.631
	c0.122-43.169-30.234-95.749-67.802-117.44l25.994-15.106c37.569,21.691,67.926,74.269,67.802,117.44
	C331.619,470.118,324.048,485.208,311.837,492.304z"/>
<path style="fill:#EEBF00;" d="M237.883,346.338c37.569,21.691,67.926,74.269,67.802,117.44
	c-0.122,43.169-30.677,60.582-68.247,38.892s-67.926-74.269-67.802-117.44S200.315,324.649,237.883,346.338z"/>
<polygon style="fill:#CBA400;" points="279.377,431.308 245.082,411.508 234.589,367.909 226.791,372.44 218.663,396.254 
	189.588,379.468 181.79,384 209.472,423.184 198.767,454.544 226.579,447.399 254.258,486.582 262.056,482.051 252.139,440.834 
	271.579,435.84 "/>
<polygon style="fill:#FECE00;" points="181.79,384 189.588,379.468 223.884,399.269 216.086,403.802 "/>
<g>
	<polygon style="fill:#CBA400;" points="243.768,442.985 251.566,438.453 262.056,482.051 254.258,486.582 	"/>
	<polygon style="fill:#CBA400;" points="226.791,372.44 234.589,367.909 245.082,411.508 237.284,416.039 	"/>
</g>
<polygon style="fill:#FECE00;" points="237.284,416.039 245.082,411.508 279.377,431.308 271.579,435.84 "/>
<polygon style="fill:#DDB201;" points="271.579,435.84 243.768,442.985 254.258,486.582 226.579,447.399 198.767,454.544 
	209.472,423.184 181.79,384 216.086,403.802 226.791,372.44 237.284,416.039 "/>
<g>
	<path style="fill:#820018;" d="M333.276,62.682c-0.755-0.452-1.542-0.837-2.358-1.154c-1.02-0.395-2.085-0.684-3.189-0.868
		c1.104,0.183,2.169,0.472,3.189,0.868C331.734,61.845,332.521,62.229,333.276,62.682L229.303,2.26
		c-6.042-3.621-14.119-2.87-22.747,2.111s-16.684,13.546-22.684,24.119c-6.004,10.575-9.174,21.786-8.93,31.569l0,0l5.723,190.701
		l28.392,41.844l12.96,19.099l14.169,8.234l7.709,4.48l12.046-4.568l14.563-5.521l10.529,6.119l29.912-11.341l10.758-4.079l0,0
		l15.704-9.066l4.951-212.106C342.543,73.82,339.32,66.301,333.276,62.682z"/>
	<polygon style="fill:#820018;" points="222.688,32.041 217.932,247.016 226.935,260.285 310.943,309.105 321.701,305.026 
		326.081,92.127 	"/>
	<polygon style="fill:#820018;" points="281.031,320.446 310.943,309.105 226.935,260.285 259.112,307.708 	"/>
</g>
<path style="fill:#EEBF00;" d="M246.817,339.167c11.427,6.553,20.88,2.216,22.493-9.575c0.005-0.039,0.01-0.077,0.015-0.116
	c0.024-0.179,0.046-0.359,0.066-0.542c0.007-0.063,0.014-0.126,0.02-0.189c0.017-0.161,0.031-0.324,0.045-0.488
	c0.006-0.075,0.013-0.15,0.018-0.226c0.011-0.157,0.022-0.315,0.031-0.474c0.004-0.079,0.009-0.159,0.014-0.239
	c0.008-0.166,0.014-0.334,0.02-0.504c0.002-0.072,0.005-0.143,0.007-0.215c0.006-0.24,0.009-0.484,0.009-0.729
	c0-4.688-1.058-9.695-2.911-14.571c-0.069-0.183-0.14-0.365-0.211-0.548c-0.334-0.851-0.692-1.697-1.072-2.536
	c-0.211-0.465-0.429-0.929-0.654-1.39c-0.113-0.23-0.227-0.46-0.343-0.69c-0.178-0.351-0.36-0.7-0.545-1.047
	c-0.178-0.333-0.357-0.665-0.541-0.994c-0.124-0.223-0.251-0.444-0.377-0.665c-4.114-7.123-9.797-13.329-16.074-16.93
	c-12.558-7.201-22.735-1.25-22.736,13.299c0,7.272,2.543,15.313,6.656,22.438C234.859,329.361,240.541,335.567,246.817,339.167z
	 M236.677,284.399c0.087-0.017,0.163-0.029,0.225-0.039c0.034-0.005,0.063-0.009,0.088-0.013c0.02-0.003,0.038-0.005,0.05-0.006
	c0.29-0.037,0.62-0.077,1.213-0.077c0.097,0,0.202,0.001,0.31,0.004c0.054,0.001,0.11,0.003,0.166,0.005
	c0.224,0.009,0.456,0.025,0.662,0.047c0.051,0.005,0.101,0.011,0.149,0.018c0.502,0.068,0.892,0.125,1.299,0.207
	c0.069,0.014,0.138,0.029,0.209,0.045c0.096,0.021,0.194,0.044,0.296,0.069c0.155,0.039,0.32,0.081,0.496,0.132
	c0.101,0.028,0.208,0.06,0.32,0.092c0.125,0.038,0.259,0.077,0.401,0.121c0.061,0.019,0.121,0.038,0.185,0.057
	c0.111,0.034,0.227,0.073,0.345,0.114c0.709,0.247,1.523,0.594,2.203,0.915c0.113,0.053,0.223,0.107,0.327,0.159
	c0.281,0.139,0.944,0.467,1.837,0.996c0.457,0.27,0.972,0.59,1.53,0.968c0.532,0.358,1.227,0.858,1.736,1.249
	c0.516,0.395,1.178,0.957,1.681,1.368c0.292,0.237,0.708,0.608,1.195,1.066c0.194,0.183,0.4,0.38,0.614,0.589
	c0.854,0.834,1.829,1.845,2.694,2.846c0.109,0.125,0.215,0.251,0.319,0.375c0.114,0.136,0.237,0.283,0.366,0.436
	c0.385,0.459,0.808,0.972,1.123,1.4c0.425,0.576,1.004,1.334,1.416,1.921c0.364,0.517,0.83,1.188,1.192,1.762
	c0.052,0.082,0.101,0.162,0.148,0.239c0.047,0.077,0.096,0.158,0.147,0.24c0.083,0.134,0.169,0.275,0.257,0.418
	c0.042,0.068,0.084,0.136,0.126,0.205c0.068,0.11,0.136,0.22,0.203,0.33c0.186,0.304,0.367,0.605,0.52,0.87
	c0.02,0.033,0.04,0.07,0.06,0.104c0.044,0.076,0.088,0.154,0.134,0.234c0.063,0.111,0.126,0.225,0.191,0.341
	c0.096,0.173,0.193,0.349,0.289,0.526c0.046,0.085,0.092,0.169,0.137,0.253c0.125,0.232,0.244,0.458,0.351,0.661
	c0.363,0.698,0.683,1.351,0.963,1.945c0.047,0.099,0.092,0.196,0.137,0.292c0.222,0.479,0.415,0.914,0.58,1.3
	c0.033,0.077,0.065,0.153,0.096,0.226c0.093,0.219,0.176,0.42,0.249,0.6c0.021,0.052,0.044,0.108,0.067,0.166
	c0.024,0.059,0.048,0.119,0.073,0.183c0.163,0.406,0.366,0.926,0.588,1.537c0.045,0.123,0.091,0.25,0.137,0.379
	c0.049,0.138,0.098,0.279,0.149,0.424c0.065,0.188,0.131,0.385,0.197,0.585c0.019,0.056,0.038,0.114,0.056,0.171
	c0.057,0.177,0.116,0.358,0.173,0.544c0.021,0.067,0.042,0.134,0.063,0.202c0.026,0.087,0.053,0.172,0.079,0.261
	c0.092,0.306,0.194,0.662,0.294,1.022c0.066,0.24,0.131,0.481,0.191,0.712c0.044,0.166,0.085,0.328,0.121,0.479
	c0.062,0.252,0.126,0.537,0.189,0.831c0.021,0.098,0.042,0.196,0.064,0.296c0.084,0.395,0.165,0.791,0.238,1.13
	c0.034,0.158,0.068,0.328,0.1,0.506c0.059,0.312,0.113,0.645,0.16,0.97c0.015,0.102,0.028,0.203,0.042,0.302
	c0.026,0.199,0.048,0.391,0.066,0.567c0.022,0.228,0.044,0.47,0.065,0.722c0.042,0.503,0.079,1.042,0.112,1.575
	c0.016,0.261,0.03,0.521,0.043,0.774c0.004,0.09,0.008,0.18,0.013,0.269c0.007,0.168,0.015,0.332,0.021,0.491
	c0.003,0.079,0.005,0.157,0.008,0.233c-0.022,0.747-0.044,1.684-0.114,2.523c-0.023,0.279-0.052,0.548-0.089,0.794
	c-0.001,0.008-0.002,0.018-0.004,0.026c-0.015,0.098-0.029,0.203-0.045,0.311c-0.002,0.018-0.005,0.034-0.007,0.052
	c-0.027,0.184-0.055,0.377-0.087,0.565c-0.032,0.196-0.068,0.387-0.106,0.554c-0.018,0.08-0.037,0.164-0.056,0.251
	c-0.139,0.605-0.319,1.331-0.511,1.877c-0.19,0.539-0.48,1.247-0.731,1.761c-0.028,0.059-0.061,0.121-0.095,0.185
	c-0.035,0.065-0.071,0.131-0.108,0.196c-0.074,0.132-0.15,0.263-0.216,0.374c-0.002,0.003-0.004,0.007-0.006,0.01
	c-0.021,0.034-0.043,0.071-0.067,0.109c-0.007,0.011-0.015,0.023-0.022,0.033c-0.021,0.031-0.041,0.064-0.063,0.095
	c-0.005,0.007-0.009,0.015-0.015,0.022c-0.053,0.079-0.107,0.159-0.151,0.227c-0.003,0.005-0.345,0.509-0.767,0.929
	c-0.157,0.156-0.289,0.272-0.403,0.364c-0.187,0.073-0.389,0.137-0.607,0.189c-0.724,0.173-1.381,0.191-1.409,0.192
	c-0.583,0.015-1.004,0.024-1.796-0.068c-0.602-0.07-1.398-0.22-1.984-0.371c-0.828-0.212-1.911-0.578-2.698-0.912
	c-0.429-0.183-0.998-0.438-1.415-0.648c-0.495-0.249-1.152-0.589-1.626-0.878c-1.223-0.746-2.031-1.238-3.43-2.311
	c-1.88-1.441-3.284-2.823-3.344-2.881c-0.983-0.971-2.257-2.303-3.152-3.354c-1.019-1.196-1.972-2.427-2.912-3.765
	c-0.913-1.298-1.786-2.665-2.593-4.066c-1.297-2.248-2.138-4.089-2.23-4.291c-0.502-1.109-1.125-2.489-1.815-4.436
	c-0.542-1.529-0.997-3.046-1.353-4.507c-1.037-4.255-1.091-7.161-1.1-8.577c-0.009-1.381,0.134-2.869,0.194-3.258
	c0.069-0.439,0.133-1.029,0.235-1.462c0.186-0.792,0.453-1.846,0.724-2.614c0.133-0.374,0.339-0.864,0.517-1.219
	c0.107-0.212,0.252-0.493,0.37-0.699c0.104-0.183,0.252-0.424,0.372-0.598c0.162-0.234,0.435-0.625,0.814-1.012
	c0.17-0.172,0.315-0.301,0.444-0.402c0.087-0.033,0.185-0.068,0.298-0.102c0.056-0.017,0.112-0.033,0.167-0.048
	C236.393,284.457,236.547,284.424,236.677,284.399z"/>
<polygon style="fill:#720017;" points="243.893,324.417 281.031,320.446 259.112,307.708 222.015,311.702 "/>
<path style="fill:#EEBF00;" d="M228.66,276.072c-0.329,0.225-0.879,0.6-1.424,1.038c-0.37,0.297-0.851,0.707-1.196,1.03
	c-0.352,0.328-0.797,0.791-1.13,1.14c-0.372,0.39-1.116,1.301-1.421,1.74c-0.302,0.435-0.697,1.021-0.975,1.472
	c-0.214,0.347-0.479,0.822-0.662,1.187c-0.167,0.33-0.39,0.771-0.535,1.112c-0.24,0.563-0.537,1.324-0.747,1.899
	c-0.131,0.356-0.275,0.842-0.38,1.207c-0.102,0.353-0.233,0.826-0.311,1.186c-0.147,0.68-0.325,1.591-0.442,2.278
	c-0.066,0.385-0.127,0.903-0.17,1.29c-0.043,0.39-0.097,0.909-0.118,1.301c-0.042,0.784-0.077,1.83-0.091,2.613
	c0,0.008,0.003,0.017,0.003,0.025c0-0.008-0.003-0.017-0.003-0.025c0.001,2.395,0.214,4.332,0.371,5.546
	c0.335,2.608,0.829,4.648,1.066,5.627c0.052,0.215,0.333,1.36,0.773,2.819c0.416,1.377,0.798,2.454,0.925,2.809
	c0.918,2.585,1.766,4.437,2.272,5.543c0.023,0.049,0.564,1.232,1.333,2.711c0.463,0.89,0.953,1.784,1.456,2.655
	c1.023,1.772,2.117,3.487,3.253,5.097c0.766,1.087,1.979,2.76,3.662,4.733c1.683,1.974,2.975,3.265,4.015,4.269
	c0.958,0.924,2.492,2.322,4.354,3.736c0.494,0.375,1.27,0.953,2.284,1.63c0.676,0.45,1.602,1.014,2.301,1.426
	c0.01,0.006,1.038,0.608,2.356,1.241c0.822,0.394,0.965,0.452,2.331,1.008c0.362,0.147,0.855,0.316,1.225,0.44
	c0.323,0.109,0.76,0.236,1.086,0.337c0.37,0.115,0.874,0.234,1.251,0.326c0.311,0.076,0.73,0.163,1.045,0.22
	c0.389,0.071,0.91,0.148,1.301,0.207c0.428,0.064,1.004,0.117,1.437,0.138c0.562,0.028,1.313,0.056,1.877,0.034
	c0.45-0.018,1.051-0.057,1.5-0.096c0.26-0.022,0.606-0.07,0.865-0.107c0.576-0.081,1.238-0.214,1.638-0.309
	c1.021-0.242,1.638-0.45,1.805-0.509c0.223-0.078,0.521-0.178,0.741-0.262c0.304-0.117,0.711-0.275,1.007-0.41
	c0.434-0.196,1.004-0.475,1.429-0.691c0.214-0.109,0.489-0.272,0.699-0.389l0.854-0.489c0.33-0.197,0.766-0.468,1.089-0.677
	c0.191-0.124,0.439-0.3,0.625-0.433c0.582-0.414,1.159-0.892,1.408-1.11c0.355-0.31,0.812-0.743,1.15-1.071
	c0.177-0.171,0.397-0.416,0.566-0.595c0.341-0.358,0.762-0.868,1.062-1.261c0.27-0.352,0.624-0.828,0.862-1.203
	c0.209-0.328,0.485-0.768,0.682-1.104c0.143-0.245,0.327-0.577,0.453-0.831c0.165-0.331,0.381-0.774,0.535-1.112
	c0.125-0.277,0.28-0.651,0.392-0.934c0.191-0.486,0.448-1.171,0.736-2.171c0.423-1.471,0.743-3.116,0.924-4.754
	c0.297-2.696,0.197-5.049,0.185-5.309c-0.073-1.534-0.08-1.694-0.187-2.768c-0.151-1.526-0.363-2.784-0.365-2.795
	c-0.257-1.48-0.353-2.033-0.534-2.812c-0.098-0.423-0.219-0.992-0.329-1.412c-0.49-1.88-0.49-1.88-0.773-2.817
	c-1.267-4.189-3.03-8.359-5.241-12.394c-0.218-0.398-0.511-0.929-0.743-1.32c-0.232-0.391-0.536-0.915-0.772-1.303
	s-0.56-0.9-0.799-1.285c-0.412-0.66-0.757-1.164-1.68-2.509c-0.007-0.01-0.758-1.093-1.783-2.417
	c-1.031-1.333-1.872-2.308-1.881-2.318c-0.578-0.669-1.367-1.544-1.964-2.196c-0.298-0.324-0.713-0.739-1.019-1.056
	c-0.559-0.58-0.977-0.969-2.093-2.007c-0.008-0.008-0.958-0.883-2.169-1.863c-0.919-0.744-1.279-1.006-2.241-1.708
	c-0.362-0.263-2.287-1.643-4.679-2.896c-1.592-0.836-3.13-1.497-4.702-2.024c-2.193-0.735-4.005-1.007-4.682-1.091
	c-0.516-0.064-1.297-0.16-2.378-0.177c-1.064-0.017-1.551,0.025-2.435,0.1c-0.27,0.023-0.628,0.067-0.895,0.112
	c-0.485,0.08-1.127,0.202-1.608,0.304c-0.17,0.037-0.802,0.181-1.805,0.508c-0.877,0.286-1.741,0.668-1.749,0.672
	c-0.434,0.196-1.004,0.475-1.429,0.691c-0.214,0.109-0.489,0.272-0.699,0.389l-0.854,0.489
	C229.419,275.591,228.978,275.855,228.66,276.072z M269.021,328.656c-0.067,0.453-0.148,1.061-0.249,1.509
	c-0.144,0.645-0.348,1.505-0.567,2.127c-0.19,0.539-0.48,1.247-0.731,1.761c-0.114,0.233-0.287,0.533-0.419,0.757
	c-0.091,0.153-0.226,0.349-0.324,0.496c-0.003,0.005-0.345,0.509-0.767,0.929c-0.157,0.156-0.289,0.272-0.403,0.364
	c-0.187,0.073-0.389,0.137-0.607,0.189c-0.724,0.173-1.381,0.191-1.409,0.192c-0.583,0.015-1.004,0.024-1.796-0.068
	c-0.602-0.07-1.398-0.22-1.984-0.371c-0.828-0.212-1.911-0.578-2.698-0.912c-0.429-0.183-0.998-0.438-1.415-0.648
	c-0.495-0.249-1.152-0.589-1.626-0.878c-1.223-0.746-2.03-1.238-3.43-2.311c-1.88-1.441-3.284-2.823-3.344-2.881
	c-0.983-0.971-2.257-2.303-3.152-3.354c-1.019-1.196-1.972-2.427-2.912-3.765c-0.913-1.298-1.786-2.665-2.593-4.066
	c-1.297-2.248-2.138-4.089-2.23-4.291c-0.502-1.109-1.125-2.489-1.815-4.436c-0.542-1.529-0.997-3.046-1.353-4.507
	c-1.037-4.255-1.091-7.161-1.1-8.577c-0.009-1.381,0.134-2.869,0.194-3.258c0.069-0.439,0.133-1.029,0.235-1.462
	c0.186-0.792,0.453-1.846,0.724-2.614c0.133-0.374,0.339-0.864,0.517-1.219c0.107-0.212,0.252-0.493,0.37-0.699
	c0.104-0.183,0.252-0.424,0.372-0.598c0.162-0.234,0.435-0.625,0.814-1.012c0.169-0.172,0.315-0.301,0.444-0.402
	c0.087-0.033,0.185-0.068,0.298-0.102c0.451-0.137,0.862-0.194,0.977-0.209c0.29-0.037,0.62-0.077,1.213-0.077
	c0.388,0,0.905,0.024,1.289,0.075c1.145,0.154,1.719,0.256,3.205,0.724c0.89,0.28,2.039,0.774,2.874,1.188
	c0.424,0.21,1.716,0.849,3.366,1.963c0.532,0.358,1.227,0.858,1.736,1.249c0.516,0.395,1.178,0.957,1.681,1.368
	c0.932,0.76,3.152,2.884,4.822,4.876c0.456,0.543,1.069,1.265,1.489,1.836c0.425,0.576,1.004,1.334,1.416,1.921
	c0.416,0.591,0.965,1.383,1.341,2.001c0.376,0.62,0.891,1.437,1.254,2.065s0.828,1.476,1.162,2.119
	c0.968,1.862,1.635,3.4,2.024,4.361c0.341,0.842,0.974,2.422,1.585,4.455c0.199,0.658,0.442,1.543,0.606,2.211
	c0.165,0.673,0.345,1.579,0.491,2.256c0.15,0.696,0.299,1.636,0.369,2.346c0.119,1.215,0.22,2.842,0.261,4.063
	C269.194,326.335,269.165,327.669,269.021,328.656z"/>
<path style="fill:#FED322;" d="M282.236,323.295c-0.073-1.534-0.08-1.694-0.187-2.768c-0.152-1.526-0.363-2.784-0.365-2.795
	c-0.257-1.48-0.353-2.033-0.534-2.812c-0.098-0.423-0.219-0.992-0.328-1.412c-0.49-1.88-0.49-1.88-0.773-2.817
	c-1.267-4.189-3.03-8.359-5.241-12.394c-0.218-0.398-0.511-0.929-0.743-1.32c-0.232-0.391-0.536-0.915-0.772-1.303
	c-0.236-0.388-0.56-0.9-0.799-1.284c-0.412-0.66-0.757-1.164-1.68-2.509c-0.007-0.01-0.758-1.093-1.783-2.417
	c-1.031-1.333-1.872-2.308-1.881-2.318c-0.578-0.669-1.367-1.544-1.964-2.196c-0.298-0.324-0.713-0.739-1.019-1.056
	c-0.559-0.58-0.977-0.969-2.093-2.007c-0.008-0.008-0.958-0.883-2.169-1.863c-0.919-0.744-1.279-1.006-2.241-1.708
	c-0.362-0.263-2.287-1.643-4.679-2.896c-1.592-0.836-3.13-1.497-4.702-2.024c-2.193-0.735-4.005-1.007-4.682-1.091
	c-0.516-0.064-1.297-0.16-2.378-0.177c-1.064-0.017-1.551,0.024-2.435,0.1c-0.27,0.023-0.628,0.067-0.895,0.112
	c-0.485,0.08-1.127,0.202-1.608,0.304c-0.17,0.037-0.802,0.181-1.805,0.508c-0.877,0.286-1.741,0.668-1.749,0.672
	c-0.434,0.196-1.004,0.475-1.429,0.691c-0.214,0.109-0.489,0.272-0.699,0.389l-0.854,0.489c-0.33,0.197-0.771,0.461-1.089,0.677
	c-0.329,0.225-0.879,0.6-1.424,1.038c-0.37,0.297-0.851,0.707-1.196,1.03c-0.352,0.328-0.797,0.791-1.13,1.14
	c-0.372,0.39-1.116,1.301-1.421,1.74c-0.302,0.435-0.697,1.021-0.975,1.472c-0.214,0.347-0.479,0.822-0.662,1.187
	c-0.167,0.33-0.39,0.771-0.535,1.112c-0.24,0.563-0.537,1.324-0.747,1.899c-0.131,0.356-0.275,0.842-0.38,1.207
	c-0.102,0.353-0.233,0.826-0.311,1.186c-0.147,0.68-0.325,1.591-0.442,2.278c-0.066,0.385-0.127,0.903-0.17,1.29
	c-0.043,0.39-0.097,0.909-0.118,1.301c-0.042,0.784-0.077,1.83-0.091,2.613c0,0.034,0.003,0.067,0.008,0.099
	c-0.005-0.032-0.008-0.066-0.008-0.099c0.001,2.395,0.215,4.332,0.371,5.546c0.335,2.608,0.829,4.648,1.066,5.627
	c0.052,0.215,0.333,1.36,0.773,2.819c0.416,1.377,0.798,2.455,0.924,2.809c0.918,2.585,1.766,4.437,2.272,5.543
	c0.023,0.049,0.564,1.232,1.333,2.711c0.463,0.89,0.953,1.784,1.456,2.655c1.023,1.772,2.117,3.487,3.253,5.097
	c0.766,1.087,1.979,2.76,3.662,4.733c1.683,1.974,2.975,3.265,4.015,4.269c0.958,0.924,2.492,2.322,4.354,3.736
	c0.494,0.376,1.27,0.953,2.284,1.63c0.676,0.45,1.602,1.014,2.301,1.426c0.01,0.006,1.038,0.608,2.356,1.241
	c0.822,0.395,0.965,0.452,2.331,1.008c0.362,0.147,0.855,0.316,1.225,0.44c0.323,0.109,0.76,0.236,1.086,0.337
	c0.37,0.115,0.874,0.234,1.251,0.326c0.311,0.076,0.73,0.163,1.045,0.22c0.389,0.071,0.91,0.148,1.301,0.207
	c0.428,0.064,1.004,0.117,1.437,0.138c0.562,0.028,1.313,0.056,1.877,0.034c0.45-0.018,1.051-0.057,1.5-0.096
	c0.26-0.022,0.606-0.07,0.865-0.107c0.576-0.081,1.238-0.214,1.638-0.309c1.021-0.242,1.638-0.45,1.805-0.508
	c0.223-0.078,0.521-0.178,0.741-0.262c0.304-0.117,0.711-0.275,1.007-0.41c0.434-0.196,1.004-0.475,1.429-0.691
	c0.214-0.109,0.489-0.272,0.699-0.389l0.854-0.489c0.33-0.197,0.766-0.468,1.089-0.677c0.191-0.124,0.439-0.3,0.625-0.433
	c0.582-0.414,1.159-0.892,1.408-1.11c0.355-0.31,0.812-0.743,1.15-1.071c0.177-0.171,0.397-0.416,0.566-0.595
	c0.341-0.358,0.762-0.868,1.062-1.261c0.27-0.352,0.624-0.828,0.862-1.203c0.209-0.328,0.485-0.768,0.682-1.104
	c0.143-0.245,0.327-0.577,0.453-0.831c0.165-0.331,0.381-0.774,0.534-1.112c0.125-0.277,0.28-0.651,0.392-0.934
	c0.191-0.486,0.448-1.171,0.736-2.171c0.423-1.471,0.743-3.116,0.924-4.754C282.347,325.909,282.248,323.556,282.236,323.295z
	 M266.221,346.436c-4.965,2.904-11.82,2.528-19.396-1.818c-7.576-4.346-14.431-11.833-19.396-20.433
	c-0.001-0.002-0.002-0.004-0.003-0.006s-0.002-0.004-0.003-0.006c-4.965-8.599-8.034-18.301-8.034-27.078s3.069-14.957,8.034-17.861
	s11.82-2.528,19.396,1.818c7.576,4.346,14.431,11.833,19.396,20.433c0.001,0.002,0.002,0.004,0.003,0.005
	c0.001,0.002,0.002,0.004,0.004,0.006c4.965,8.599,8.034,18.301,8.034,27.078C274.255,337.351,271.186,343.532,266.221,346.436z"/>
<path style="fill:#FEDA44;" d="M266.221,301.497c-0.001-0.002-0.002-0.004-0.004-0.006c-4.965-8.597-11.819-16.082-19.393-20.426
	c-7.576-4.346-14.431-4.722-19.396-1.818c-4.965,2.905-8.034,9.085-8.034,17.861c0,8.775,3.068,18.474,8.031,27.072
	c0.001,0.002,0.002,0.004,0.003,0.006c4.965,8.599,11.82,16.087,19.396,20.433c7.576,4.346,14.431,4.722,19.396,1.818
	c4.965-2.905,8.034-9.085,8.034-17.861C274.255,319.798,271.186,310.097,266.221,301.497z M246.825,339.18
	c-6.281-3.603-11.966-9.814-16.08-16.942c-4.112-7.124-6.655-15.165-6.656-22.438c0.001-14.549,10.177-20.501,22.736-13.299
	c6.278,3.602,11.961,9.806,16.074,16.93c4.116,7.127,6.662,15.174,6.662,22.451C269.56,340.429,259.384,346.382,246.825,339.18z"/>
<polygon style="fill:#A50020;" points="209.056,292.603 222.015,311.702 236.183,319.936 243.893,324.417 255.94,319.848 "/>
<path style="fill:#720017;" d="M326.66,92.462L222.688,32.04c0.096-5.072-1.532-8.869-4.585-10.701l103.972,60.422
	C325.128,83.593,326.756,87.39,326.66,92.462z"/>
<polygon style="fill:#C60024;" points="209.056,292.603 255.94,319.848 284.582,308.988 278.915,120.481 174.943,60.058 
	180.665,250.759 "/>
<path style="fill:#A50020;" d="M284.582,308.988L284.582,308.988l15.704-9.066l-5.678-188.954
	c-0.124-4.944,1.477-10.607,4.51-15.951c3.034-5.342,7.105-9.671,11.463-12.188c4.358-2.516,8.441-2.894,11.495-1.068
	c3.052,1.832,4.681,5.629,4.585,10.701l-4.959,212.563l15.704-9.066l4.951-212.106c0.188-10.033-3.035-17.552-9.079-21.171
	c-6.042-3.621-14.12-2.87-22.747,2.111c-8.628,4.981-16.684,13.546-22.684,24.119c-6.004,10.575-9.174,21.785-8.93,31.569
	L284.582,308.988z"/>
<path style="fill:#FE0B37;" d="M278.915,120.481L174.943,60.058c-0.244-9.783,2.927-20.994,8.93-31.569
	c6.001-10.573,14.057-19.138,22.684-24.119c8.628-4.981,16.706-5.731,22.747-2.111l103.972,60.422
	c-6.042-3.621-14.12-2.87-22.747,2.111s-16.684,13.546-22.684,24.119C281.842,99.487,278.671,110.697,278.915,120.481z"/>
<g>
</g>
<g>
</g>
<g>
</g>
<g>
</g>
<g>
</g>
<g>
</g>
<g>
</g>
<g>
</g>
<g>
</g>
<g>
</g>
<g>
</g>
<g>
</g>
<g>
</g>
<g>
</g>
<g>
</g>
</svg>
